<svg width="23" height="24" viewBox="0 0 23 24" fill="none" xmlns="http://www.w3.org/2000/svg">
<path d="M21.8934 14.5657C22.2297 15.136 21.8996 15.898 20.8306 16.7527C19.646 17.6902 18.4258 18.5843 17.2235 19.5002C16.7379 20.163 16.0328 20.4968 15.2727 20.6388C13.9696 20.8941 13.0802 19.8136 13.5895 18.5911C13.865 17.9304 14.2016 17.2566 14.9666 16.9923C16.2803 15.8859 17.7548 15.0185 19.3312 14.3519C20.5632 13.8314 21.5295 13.957 21.8934 14.5657Z" fill="black"/>
<path d="M13.0393 8.4293C12.6718 8.66096 12.2962 8.92094 12.0181 9.24865C10.7834 10.7012 9.56594 12.1711 8.64196 13.8518C8.45479 14.1902 8.30319 14.559 8.20291 14.9317C8.05267 15.4945 8.17437 16.0064 8.68914 16.3512C9.19882 16.6925 9.70225 16.5988 10.2011 16.2952C10.5857 16.0617 10.8977 15.7497 11.1441 15.3862C11.6087 14.6988 12.043 13.991 12.3113 13.5707C12.9147 12.5201 13.371 11.7667 13.7822 10.9899C14.0321 10.5171 14.2462 10.0187 14.4167 9.51067C14.5463 9.12777 14.5015 8.72805 14.1405 8.45173C13.7858 8.17947 13.3874 8.21151 13.0393 8.4293Z" fill="black"/>
<path d="M4.82922 4.70129C5.00608 5.24323 5.24898 5.79564 5.04337 6.39628L5.05086 6.40097C5.34126 8.38552 5.61241 10.3681 5.38479 12.3771C5.32043 12.953 5.19931 13.5347 5.04908 14.0974C4.90592 14.6649 4.52698 15.0295 3.92683 15.1168C3.32718 15.2044 2.90049 14.8897 2.5637 14.4344C2.24935 13.9932 2.10251 13.4704 1.99179 12.9394C1.60499 11.1546 1.64803 9.35192 1.77926 7.54268C1.51179 6.61881 1.72654 5.70988 1.93899 4.82068C2.11609 4.11811 2.54075 3.58424 3.33213 3.5244C3.97894 3.47851 4.56681 3.91677 4.82922 4.70129Z" fill="black"/>
</svg>
